<?xml version="1.0" standalone="no"?>
<!DOCTYPE svg PUBLIC "-//W3C//DTD SVG 20010904//EN"
 "http://www.w3.org/TR/2001/REC-SVG-20010904/DTD/svg10.dtd">
<svg version="1.0" xmlns="http://www.w3.org/2000/svg"
 width="681.000000pt" height="376.000000pt" viewBox="0 0 681.000000 376.000000"
 preserveAspectRatio="xMidYMid meet">

<g transform="translate(0.000000,376.000000) scale(0.100000,-0.100000)"
fill="#000000" stroke="none">
<path d="M0 1880 l0 -1880 3405 0 3405 0 0 1880 0 1880 -3405 0 -3405 0 0
-1880z m1070 530 c0 -5 -4 -10 -10 -10 -5 0 -10 5 -10 10 0 6 5 10 10 10 6 0
10 -4 10 -10z m300 0 c0 -5 -4 -10 -10 -10 -5 0 -10 5 -10 10 0 6 5 10 10 10
6 0 10 -4 10 -10z m300 0 c0 -5 -4 -10 -10 -10 -5 0 -10 5 -10 10 0 6 5 10 10
10 6 0 10 -4 10 -10z m3088 -186 c34 -39 30 -95 -9 -128 -41 -35 -83 -34 -120
3 -48 49 -37 120 24 147 41 17 76 10 105 -22z m662 -22 c34 -8 35 -10 33 -52
-1 -24 -6 -47 -12 -53 -6 -6 -33 -5 -76 2 -70 12 -128 7 -145 -13 -5 -7 -11
-35 -12 -62 l-3 -49 93 -3 92 -3 0 -54 0 -55 -95 0 -95 0 0 -180 0 -180 95 0
95 0 0 -55 0 -55 -220 0 -220 0 0 55 0 55 50 0 50 0 0 180 0 180 -50 0 -50 0
0 55 0 55 50 0 50 0 0 35 c0 105 43 183 113 205 34 10 197 5 257 -8z m-2880
-352 l0 -350 155 0 155 0 0 -55 0 -55 -235 0 -235 0 0 398 c0 219 3 402 7 405
3 4 39 7 80 7 l73 0 0 -350z m-996 284 c23 -9 21 -55 -2 -61 -18 -4 -17 -12
15 -146 18 -78 35 -152 38 -163 3 -12 15 -24 29 -28 30 -7 45 -45 24 -60 -9
-6 -68 -24 -132 -40 -93 -22 -119 -26 -131 -16 -19 16 -19 44 0 60 11 9 14 23
9 49 -4 20 -8 38 -10 40 -1 2 -122 -25 -267 -60 l-265 -63 5 -37 c5 -31 2 -39
-16 -49 -35 -18 -46 0 -76 119 -33 132 -31 156 9 156 24 0 31 -6 39 -30 5 -16
11 -32 13 -34 3 -3 516 119 523 125 2 2 -3 29 -11 61 -11 46 -18 59 -35 61
-44 6 -36 72 8 72 9 0 24 6 32 14 8 8 23 13 33 10 11 -2 42 2 69 10 58 16 77
18 99 10z m-774 -24 c0 -5 -4 -10 -10 -10 -5 0 -10 5 -10 10 0 6 5 10 10 10 6
0 10 -4 10 -10z m300 0 c0 -5 -4 -10 -10 -10 -5 0 -10 5 -10 10 0 6 5 10 10
10 6 0 10 -4 10 -10z m600 0 c0 -5 -4 -10 -10 -10 -5 0 -10 5 -10 10 0 6 5 10
10 10 6 0 10 -4 10 -10z m300 0 c0 -5 -4 -10 -10 -10 -5 0 -10 5 -10 10 0 6 5
10 10 10 6 0 10 -4 10 -10z m2451 -164 c50 -113 31 -222 -73 -428 l-70 -138
-92 0 -93 0 -24 95 c-13 52 -26 95 -29 95 -4 0 -24 -43 -45 -95 l-38 -96 -90
3 -90 3 -68 264 c-37 145 -71 276 -74 292 l-7 29 75 0 75 0 59 -237 59 -237
53 124 53 124 -30 113 -29 113 76 0 77 0 48 -197 c26 -109 52 -216 58 -238
l10 -40 34 82 c55 132 58 201 19 354 -6 24 -4 26 57 41 35 9 67 17 71 17 4 1
17 -19 28 -43z m-1014 15 c66 -30 70 -46 76 -296 3 -121 8 -229 12 -241 6 -19
0 -22 -62 -36 -73 -15 -83 -12 -83 30 0 12 -2 22 -4 22 -3 0 -28 -14 -56 -32
-45 -28 -59 -31 -124 -31 -81 0 -123 17 -158 64 -40 54 -32 159 17 217 37 44
112 72 218 80 l92 7 3 42 c3 35 -2 48 -22 68 -35 35 -67 34 -223 -11 -19 -5
-23 0 -37 47 -9 29 -15 54 -13 56 14 13 140 31 222 32 78 0 109 -4 142 -18z
m1363 -281 l0 -290 -75 0 -75 0 0 290 0 290 75 0 75 0 0 -290z m962 70 c3
-204 4 -221 23 -239 20 -19 39 -24 83 -22 13 1 44 22 72 51 l50 49 0 191 0
190 80 0 80 0 0 -277 c0 -153 -5 -307 -10 -342 -12 -87 -46 -135 -118 -169
-50 -24 -69 -27 -162 -27 -109 0 -205 19 -197 39 41 100 39 98 66 92 146 -34
196 -32 237 9 21 22 24 33 24 107 l0 83 -26 -33 c-39 -50 -98 -75 -170 -75
-94 1 -145 36 -169 117 -11 37 -15 104 -15 263 l0 213 74 0 75 0 3 -220z
m-4062 60 c0 -5 -4 -10 -10 -10 -5 0 -10 5 -10 10 0 6 5 10 10 10 6 0 10 -4
10 -10z m300 0 c0 -5 -4 -10 -10 -10 -5 0 -10 5 -10 10 0 6 5 10 10 10 6 0 10
-4 10 -10z m-659 -185 c85 -71 95 -83 81 -97 -8 -8 -33 8 -91 56 -80 67 -88
76 -74 89 10 11 12 10 84 -48z m518 42 c9 -11 -6 -28 -69 -81 -72 -60 -100
-73 -100 -46 0 8 147 140 155 140 2 0 8 -6 14 -13z m-589 -80 c66 -55 87 -87
57 -87 -15 0 -157 117 -157 129 0 11 12 22 21 19 5 -2 40 -29 79 -61z m677 46
c4 -12 -135 -133 -154 -133 -32 0 -16 25 54 84 75 63 93 72 100 49z m-1147
-123 c0 -5 -4 -10 -10 -10 -5 0 -10 5 -10 10 0 6 5 10 10 10 6 0 10 -4 10 -10z
m300 0 c0 -5 -4 -10 -10 -10 -5 0 -10 5 -10 10 0 6 5 10 10 10 6 0 10 -4 10
-10z m300 0 c0 -16 277 -13 284 3 5 10 7 10 12 0 3 -7 19 -13 35 -13 26 0 29
-4 29 -30 0 -30 1 -30 55 -30 l55 0 0 -90 0 -90 -295 0 -295 0 0 90 0 90 60 0
60 0 0 30 c0 17 -4 30 -10 30 -5 0 -10 5 -10 10 0 6 5 10 10 10 6 0 10 -4 10
-10z m600 0 c0 -5 -4 -10 -10 -10 -5 0 -10 5 -10 10 0 6 5 10 10 10 6 0 10 -4
10 -10z m-1200 -300 c0 -5 -4 -10 -10 -10 -5 0 -10 5 -10 10 0 6 5 10 10 10 6
0 10 -4 10 -10z m300 0 c0 -5 -4 -10 -10 -10 -5 0 -10 5 -10 10 0 6 5 10 10
10 6 0 10 -4 10 -10z m300 0 c0 -5 -4 -10 -10 -10 -5 0 -10 5 -10 10 0 6 5 10
10 10 6 0 10 -4 10 -10z m300 0 c0 -5 -4 -10 -10 -10 -5 0 -10 5 -10 10 0 6 5
10 10 10 6 0 10 -4 10 -10z m-300 -294 c0 -3 -4 -8 -10 -11 -5 -3 -10 -1 -10
4 0 6 5 11 10 11 6 0 10 -2 10 -4z"/>
<path d="M3227 1649 c-54 -13 -84 -36 -97 -74 -32 -96 88 -136 180 -59 27 23
30 31 30 85 l0 59 -37 -1 c-21 -1 -55 -5 -76 -10z"/>
</g>
</svg>
